<?xml version="1.0" encoding="UTF-8" standalone="no"?>
<!DOCTYPE svg PUBLIC "-//W3C//DTD SVG 1.1//EN"
 "http://www.w3.org/Graphics/SVG/1.1/DTD/svg11.dtd">
<!-- Generated by graphviz version 2.38.0 (20140413.2041)
 -->
<!-- Title: %3 Pages: 1 -->
<svg width="1942pt" height="548pt"
 viewBox="0.00 0.00 1941.50 548.00" xmlns="http://www.w3.org/2000/svg" xmlns:xlink="http://www.w3.org/1999/xlink">
<g id="graph0" class="graph" transform="scale(1 1) rotate(0) translate(4 544)">
<title>%3</title>
<polygon fill="white" stroke="none" points="-4,4 -4,-544 1937.5,-544 1937.5,4 -4,4"/>
<!-- [root] aws_ebs_volume.ebs&#45;volume&#45;1 -->
<g id="node1" class="node"><title>[root] aws_ebs_volume.ebs&#45;volume&#45;1</title>
<polygon fill="none" stroke="black" points="245.5,-180 52.5,-180 52.5,-144 245.5,-144 245.5,-180"/>
<text text-anchor="middle" x="149" y="-158.3" font-family="Times New Roman,serif" font-size="14.00">aws_ebs_volume.ebs&#45;volume&#45;1</text>
</g>
<!-- [root] provider.aws -->
<g id="node18" class="node"><title>[root] provider.aws</title>
<polygon fill="none" stroke="black" points="274,-108 192.39,-90 274,-72 355.61,-90 274,-108"/>
<text text-anchor="middle" x="274" y="-86.3" font-family="Times New Roman,serif" font-size="14.00">provider.aws</text>
</g>
<!-- [root] aws_ebs_volume.ebs&#45;volume&#45;1&#45;&gt;[root] provider.aws -->
<g id="edge1" class="edge"><title>[root] aws_ebs_volume.ebs&#45;volume&#45;1&#45;&gt;[root] provider.aws</title>
<path fill="none" stroke="black" d="M179.578,-143.876C198.921,-133.044 223.84,-119.09 243.221,-108.236"/>
<polygon fill="black" stroke="black" points="244.953,-111.278 251.968,-103.338 241.533,-105.17 244.953,-111.278"/>
</g>
<!-- [root] aws_instance.example -->
<g id="node2" class="node"><title>[root] aws_instance.example</title>
<polygon fill="none" stroke="black" points="533,-324 393,-324 393,-288 533,-288 533,-324"/>
<text text-anchor="middle" x="463" y="-302.3" font-family="Times New Roman,serif" font-size="14.00">aws_instance.example</text>
</g>
<!-- [root] aws_key_pair.mykeypair -->
<g id="node4" class="node"><title>[root] aws_key_pair.mykeypair</title>
<polygon fill="none" stroke="black" points="351.5,-252 196.5,-252 196.5,-216 351.5,-216 351.5,-252"/>
<text text-anchor="middle" x="274" y="-230.3" font-family="Times New Roman,serif" font-size="14.00">aws_key_pair.mykeypair</text>
</g>
<!-- [root] aws_instance.example&#45;&gt;[root] aws_key_pair.mykeypair -->
<g id="edge2" class="edge"><title>[root] aws_instance.example&#45;&gt;[root] aws_key_pair.mykeypair</title>
<path fill="none" stroke="black" d="M416.765,-287.876C390.469,-278.137 357.356,-265.872 329.642,-255.608"/>
<polygon fill="black" stroke="black" points="330.678,-252.259 320.084,-252.068 328.246,-258.824 330.678,-252.259"/>
</g>
<!-- [root] aws_security_group.allow&#45;ssh -->
<g id="node9" class="node"><title>[root] aws_security_group.allow&#45;ssh</title>
<polygon fill="none" stroke="black" points="556,-252 370,-252 370,-216 556,-216 556,-252"/>
<text text-anchor="middle" x="463" y="-230.3" font-family="Times New Roman,serif" font-size="14.00">aws_security_group.allow&#45;ssh</text>
</g>
<!-- [root] aws_instance.example&#45;&gt;[root] aws_security_group.allow&#45;ssh -->
<g id="edge3" class="edge"><title>[root] aws_instance.example&#45;&gt;[root] aws_security_group.allow&#45;ssh</title>
<path fill="none" stroke="black" d="M463,-287.697C463,-279.983 463,-270.712 463,-262.112"/>
<polygon fill="black" stroke="black" points="466.5,-262.104 463,-252.104 459.5,-262.104 466.5,-262.104"/>
</g>
<!-- [root] aws_subnet.main&#45;public&#45;1 -->
<g id="node13" class="node"><title>[root] aws_subnet.main&#45;public&#45;1</title>
<polygon fill="none" stroke="black" points="827.5,-252 664.5,-252 664.5,-216 827.5,-216 827.5,-252"/>
<text text-anchor="middle" x="746" y="-230.3" font-family="Times New Roman,serif" font-size="14.00">aws_subnet.main&#45;public&#45;1</text>
</g>
<!-- [root] aws_instance.example&#45;&gt;[root] aws_subnet.main&#45;public&#45;1 -->
<g id="edge4" class="edge"><title>[root] aws_instance.example&#45;&gt;[root] aws_subnet.main&#45;public&#45;1</title>
<path fill="none" stroke="black" d="M531.868,-287.966C572.699,-277.866 624.599,-265.028 667.078,-254.521"/>
<polygon fill="black" stroke="black" points="667.956,-257.91 676.823,-252.111 666.276,-251.114 667.956,-257.91"/>
</g>
<!-- [root] var.AMIS -->
<g id="node19" class="node"><title>[root] var.AMIS</title>
<polygon fill="none" stroke="black" points="640,-252 574,-252 574,-216 646,-216 646,-246 640,-252"/>
<polyline fill="none" stroke="black" points="640,-252 640,-246 "/>
<polyline fill="none" stroke="black" points="646,-246 640,-246 "/>
<text text-anchor="middle" x="610" y="-230.3" font-family="Times New Roman,serif" font-size="14.00">var.AMIS</text>
</g>
<!-- [root] aws_instance.example&#45;&gt;[root] var.AMIS -->
<g id="edge5" class="edge"><title>[root] aws_instance.example&#45;&gt;[root] var.AMIS</title>
<path fill="none" stroke="black" d="M498.96,-287.876C518.877,-278.392 543.822,-266.513 565.02,-256.419"/>
<polygon fill="black" stroke="black" points="566.633,-259.528 574.157,-252.068 563.623,-253.208 566.633,-259.528"/>
</g>
<!-- [root] aws_internet_gateway.main&#45;gw -->
<g id="node3" class="node"><title>[root] aws_internet_gateway.main&#45;gw</title>
<polygon fill="none" stroke="black" points="1074,-252 884,-252 884,-216 1074,-216 1074,-252"/>
<text text-anchor="middle" x="979" y="-230.3" font-family="Times New Roman,serif" font-size="14.00">aws_internet_gateway.main&#45;gw</text>
</g>
<!-- [root] aws_vpc.main -->
<g id="node17" class="node"><title>[root] aws_vpc.main</title>
<polygon fill="none" stroke="black" points="1027.5,-180 930.5,-180 930.5,-144 1027.5,-144 1027.5,-180"/>
<text text-anchor="middle" x="979" y="-158.3" font-family="Times New Roman,serif" font-size="14.00">aws_vpc.main</text>
</g>
<!-- [root] aws_internet_gateway.main&#45;gw&#45;&gt;[root] aws_vpc.main -->
<g id="edge6" class="edge"><title>[root] aws_internet_gateway.main&#45;gw&#45;&gt;[root] aws_vpc.main</title>
<path fill="none" stroke="black" d="M979,-215.697C979,-207.983 979,-198.712 979,-190.112"/>
<polygon fill="black" stroke="black" points="982.5,-190.104 979,-180.104 975.5,-190.104 982.5,-190.104"/>
</g>
<!-- [root] aws_key_pair.mykeypair&#45;&gt;[root] provider.aws -->
<g id="edge7" class="edge"><title>[root] aws_key_pair.mykeypair&#45;&gt;[root] provider.aws</title>
<path fill="none" stroke="black" d="M274,-215.871C274,-191.67 274,-147.211 274,-118.393"/>
<polygon fill="black" stroke="black" points="277.5,-118.189 274,-108.189 270.5,-118.189 277.5,-118.189"/>
</g>
<!-- [root] var.PATH_TO_PUBLIC_KEY -->
<g id="node22" class="node"><title>[root] var.PATH_TO_PUBLIC_KEY</title>
<polygon fill="none" stroke="black" points="490,-180 302,-180 302,-144 496,-144 496,-174 490,-180"/>
<polyline fill="none" stroke="black" points="490,-180 490,-174 "/>
<polyline fill="none" stroke="black" points="496,-174 490,-174 "/>
<text text-anchor="middle" x="399" y="-158.3" font-family="Times New Roman,serif" font-size="14.00">var.PATH_TO_PUBLIC_KEY</text>
</g>
<!-- [root] aws_key_pair.mykeypair&#45;&gt;[root] var.PATH_TO_PUBLIC_KEY -->
<g id="edge8" class="edge"><title>[root] aws_key_pair.mykeypair&#45;&gt;[root] var.PATH_TO_PUBLIC_KEY</title>
<path fill="none" stroke="black" d="M304.578,-215.876C321.074,-206.639 341.624,-195.131 359.336,-185.212"/>
<polygon fill="black" stroke="black" points="361.289,-188.13 368.304,-180.19 357.869,-182.022 361.289,-188.13"/>
</g>
<!-- [root] aws_route_table.main&#45;public -->
<g id="node5" class="node"><title>[root] aws_route_table.main&#45;public</title>
<polygon fill="none" stroke="black" points="1011.5,-324 834.5,-324 834.5,-288 1011.5,-288 1011.5,-324"/>
<text text-anchor="middle" x="923" y="-302.3" font-family="Times New Roman,serif" font-size="14.00">aws_route_table.main&#45;public</text>
</g>
<!-- [root] aws_route_table.main&#45;public&#45;&gt;[root] aws_internet_gateway.main&#45;gw -->
<g id="edge9" class="edge"><title>[root] aws_route_table.main&#45;public&#45;&gt;[root] aws_internet_gateway.main&#45;gw</title>
<path fill="none" stroke="black" d="M936.843,-287.697C943.489,-279.389 951.578,-269.277 958.887,-260.141"/>
<polygon fill="black" stroke="black" points="961.803,-262.099 965.317,-252.104 956.336,-257.727 961.803,-262.099"/>
</g>
<!-- [root] aws_route_table_association.main&#45;public&#45;1&#45;a -->
<g id="node6" class="node"><title>[root] aws_route_table_association.main&#45;public&#45;1&#45;a</title>
<polygon fill="none" stroke="black" points="585.5,-396 316.5,-396 316.5,-360 585.5,-360 585.5,-396"/>
<text text-anchor="middle" x="451" y="-374.3" font-family="Times New Roman,serif" font-size="14.00">aws_route_table_association.main&#45;public&#45;1&#45;a</text>
</g>
<!-- [root] aws_route_table_association.main&#45;public&#45;1&#45;a&#45;&gt;[root] aws_route_table.main&#45;public -->
<g id="edge10" class="edge"><title>[root] aws_route_table_association.main&#45;public&#45;1&#45;a&#45;&gt;[root] aws_route_table.main&#45;public</title>
<path fill="none" stroke="black" d="M578.378,-359.946C648.156,-350.363 736.41,-337.853 824.448,-324.062"/>
<polygon fill="black" stroke="black" points="825.012,-327.516 834.347,-322.505 823.924,-320.601 825.012,-327.516"/>
</g>
<!-- [root] aws_route_table_association.main&#45;public&#45;1&#45;a&#45;&gt;[root] aws_subnet.main&#45;public&#45;1 -->
<g id="edge11" class="edge"><title>[root] aws_route_table_association.main&#45;public&#45;1&#45;a&#45;&gt;[root] aws_subnet.main&#45;public&#45;1</title>
<path fill="none" stroke="black" d="M486.584,-359.871C540.405,-333.964 642.453,-284.843 701.24,-256.545"/>
<polygon fill="black" stroke="black" points="702.797,-259.68 710.29,-252.189 699.761,-253.373 702.797,-259.68"/>
</g>
<!-- [root] aws_route_table_association.main&#45;public&#45;2&#45;a -->
<g id="node7" class="node"><title>[root] aws_route_table_association.main&#45;public&#45;2&#45;a</title>
<polygon fill="none" stroke="black" points="872.5,-396 603.5,-396 603.5,-360 872.5,-360 872.5,-396"/>
<text text-anchor="middle" x="738" y="-374.3" font-family="Times New Roman,serif" font-size="14.00">aws_route_table_association.main&#45;public&#45;2&#45;a</text>
</g>
<!-- [root] aws_route_table_association.main&#45;public&#45;2&#45;a&#45;&gt;[root] aws_route_table.main&#45;public -->
<g id="edge12" class="edge"><title>[root] aws_route_table_association.main&#45;public&#45;2&#45;a&#45;&gt;[root] aws_route_table.main&#45;public</title>
<path fill="none" stroke="black" d="M783.256,-359.876C808.996,-350.137 841.408,-337.872 868.536,-327.608"/>
<polygon fill="black" stroke="black" points="869.777,-330.881 877.891,-324.068 867.299,-324.334 869.777,-330.881"/>
</g>
<!-- [root] aws_subnet.main&#45;public&#45;2 -->
<g id="node14" class="node"><title>[root] aws_subnet.main&#45;public&#45;2</title>
<polygon fill="none" stroke="black" points="816.5,-324 653.5,-324 653.5,-288 816.5,-288 816.5,-324"/>
<text text-anchor="middle" x="735" y="-302.3" font-family="Times New Roman,serif" font-size="14.00">aws_subnet.main&#45;public&#45;2</text>
</g>
<!-- [root] aws_route_table_association.main&#45;public&#45;2&#45;a&#45;&gt;[root] aws_subnet.main&#45;public&#45;2 -->
<g id="edge13" class="edge"><title>[root] aws_route_table_association.main&#45;public&#45;2&#45;a&#45;&gt;[root] aws_subnet.main&#45;public&#45;2</title>
<path fill="none" stroke="black" d="M737.258,-359.697C736.928,-351.983 736.531,-342.712 736.162,-334.112"/>
<polygon fill="black" stroke="black" points="739.658,-333.945 735.733,-324.104 732.665,-334.245 739.658,-333.945"/>
</g>
<!-- [root] aws_route_table_association.main&#45;public&#45;3&#45;a -->
<g id="node8" class="node"><title>[root] aws_route_table_association.main&#45;public&#45;3&#45;a</title>
<polygon fill="none" stroke="black" points="1159.5,-396 890.5,-396 890.5,-360 1159.5,-360 1159.5,-396"/>
<text text-anchor="middle" x="1025" y="-374.3" font-family="Times New Roman,serif" font-size="14.00">aws_route_table_association.main&#45;public&#45;3&#45;a</text>
</g>
<!-- [root] aws_route_table_association.main&#45;public&#45;3&#45;a&#45;&gt;[root] aws_route_table.main&#45;public -->
<g id="edge14" class="edge"><title>[root] aws_route_table_association.main&#45;public&#45;3&#45;a&#45;&gt;[root] aws_route_table.main&#45;public</title>
<path fill="none" stroke="black" d="M1000.05,-359.876C986.958,-350.893 970.74,-339.763 956.564,-330.034"/>
<polygon fill="black" stroke="black" points="958.274,-326.962 948.048,-324.19 954.313,-332.734 958.274,-326.962"/>
</g>
<!-- [root] aws_subnet.main&#45;public&#45;3 -->
<g id="node15" class="node"><title>[root] aws_subnet.main&#45;public&#45;3</title>
<polygon fill="none" stroke="black" points="1192.5,-324 1029.5,-324 1029.5,-288 1192.5,-288 1192.5,-324"/>
<text text-anchor="middle" x="1111" y="-302.3" font-family="Times New Roman,serif" font-size="14.00">aws_subnet.main&#45;public&#45;3</text>
</g>
<!-- [root] aws_route_table_association.main&#45;public&#45;3&#45;a&#45;&gt;[root] aws_subnet.main&#45;public&#45;3 -->
<g id="edge15" class="edge"><title>[root] aws_route_table_association.main&#45;public&#45;3&#45;a&#45;&gt;[root] aws_subnet.main&#45;public&#45;3</title>
<path fill="none" stroke="black" d="M1046.26,-359.697C1057.09,-350.881 1070.42,-340.032 1082.16,-330.474"/>
<polygon fill="black" stroke="black" points="1084.44,-333.132 1089.99,-324.104 1080.02,-327.703 1084.44,-333.132"/>
</g>
<!-- [root] aws_security_group.allow&#45;ssh&#45;&gt;[root] aws_vpc.main -->
<g id="edge16" class="edge"><title>[root] aws_security_group.allow&#45;ssh&#45;&gt;[root] aws_vpc.main</title>
<path fill="none" stroke="black" d="M556.089,-217.336C559.093,-216.878 562.069,-216.432 565,-216 691.238,-197.406 839.695,-179.315 920.072,-169.833"/>
<polygon fill="black" stroke="black" points="920.956,-173.253 930.479,-168.608 920.138,-166.301 920.956,-173.253"/>
</g>
<!-- [root] aws_subnet.main&#45;private&#45;1 -->
<g id="node10" class="node"><title>[root] aws_subnet.main&#45;private&#45;1</title>
<polygon fill="none" stroke="black" points="1344,-396 1178,-396 1178,-360 1344,-360 1344,-396"/>
<text text-anchor="middle" x="1261" y="-374.3" font-family="Times New Roman,serif" font-size="14.00">aws_subnet.main&#45;private&#45;1</text>
</g>
<!-- [root] aws_subnet.main&#45;private&#45;1&#45;&gt;[root] aws_vpc.main -->
<g id="edge17" class="edge"><title>[root] aws_subnet.main&#45;private&#45;1&#45;&gt;[root] aws_vpc.main</title>
<path fill="none" stroke="black" d="M1251.63,-359.745C1240.91,-340.89 1222.07,-310.389 1201,-288 1164.93,-249.681 1152.59,-242.29 1107,-216 1085.03,-203.331 1059.45,-192.107 1036.95,-183.287"/>
<polygon fill="black" stroke="black" points="1038.11,-179.983 1027.52,-179.657 1035.59,-186.516 1038.11,-179.983"/>
</g>
<!-- [root] aws_subnet.main&#45;private&#45;2 -->
<g id="node11" class="node"><title>[root] aws_subnet.main&#45;private&#45;2</title>
<polygon fill="none" stroke="black" points="1528,-396 1362,-396 1362,-360 1528,-360 1528,-396"/>
<text text-anchor="middle" x="1445" y="-374.3" font-family="Times New Roman,serif" font-size="14.00">aws_subnet.main&#45;private&#45;2</text>
</g>
<!-- [root] aws_subnet.main&#45;private&#45;2&#45;&gt;[root] aws_vpc.main -->
<g id="edge18" class="edge"><title>[root] aws_subnet.main&#45;private&#45;2&#45;&gt;[root] aws_vpc.main</title>
<path fill="none" stroke="black" d="M1417.85,-359.777C1366.93,-328.02 1252.91,-259.518 1150,-216 1113.52,-200.575 1070.99,-187.375 1037.47,-178.006"/>
<polygon fill="black" stroke="black" points="1038.4,-174.63 1027.83,-175.345 1036.54,-181.378 1038.4,-174.63"/>
</g>
<!-- [root] aws_subnet.main&#45;private&#45;3 -->
<g id="node12" class="node"><title>[root] aws_subnet.main&#45;private&#45;3</title>
<polygon fill="none" stroke="black" points="1712,-396 1546,-396 1546,-360 1712,-360 1712,-396"/>
<text text-anchor="middle" x="1629" y="-374.3" font-family="Times New Roman,serif" font-size="14.00">aws_subnet.main&#45;private&#45;3</text>
</g>
<!-- [root] aws_subnet.main&#45;private&#45;3&#45;&gt;[root] aws_vpc.main -->
<g id="edge19" class="edge"><title>[root] aws_subnet.main&#45;private&#45;3&#45;&gt;[root] aws_vpc.main</title>
<path fill="none" stroke="black" d="M1588.76,-359.985C1513.46,-328.572 1345.66,-260.612 1200,-216 1145.64,-199.35 1082.45,-184.651 1037.6,-174.983"/>
<polygon fill="black" stroke="black" points="1038.26,-171.545 1027.75,-172.877 1036.8,-178.39 1038.26,-171.545"/>
</g>
<!-- [root] aws_subnet.main&#45;public&#45;1&#45;&gt;[root] aws_vpc.main -->
<g id="edge20" class="edge"><title>[root] aws_subnet.main&#45;public&#45;1&#45;&gt;[root] aws_vpc.main</title>
<path fill="none" stroke="black" d="M802.7,-215.966C838.407,-205.238 884.397,-191.421 920.452,-180.59"/>
<polygon fill="black" stroke="black" points="921.771,-183.848 930.341,-177.619 919.756,-177.144 921.771,-183.848"/>
</g>
<!-- [root] aws_subnet.main&#45;public&#45;2&#45;&gt;[root] aws_vpc.main -->
<g id="edge21" class="edge"><title>[root] aws_subnet.main&#45;public&#45;2&#45;&gt;[root] aws_vpc.main</title>
<path fill="none" stroke="black" d="M773.304,-287.851C792.786,-278.407 816.42,-265.811 836,-252 855.276,-238.403 855.643,-229.482 875,-216 891.993,-204.165 911.991,-193.333 929.887,-184.59"/>
<polygon fill="black" stroke="black" points="931.519,-187.689 939.027,-180.214 928.496,-181.375 931.519,-187.689"/>
</g>
<!-- [root] aws_subnet.main&#45;public&#45;3&#45;&gt;[root] aws_vpc.main -->
<g id="edge22" class="edge"><title>[root] aws_subnet.main&#45;public&#45;3&#45;&gt;[root] aws_vpc.main</title>
<path fill="none" stroke="black" d="M1109.54,-287.697C1107.06,-268.234 1100.47,-236.652 1083,-216 1070.8,-201.575 1053.69,-190.628 1036.87,-182.537"/>
<polygon fill="black" stroke="black" points="1038.14,-179.27 1027.58,-178.333 1035.25,-185.647 1038.14,-179.27"/>
</g>
<!-- [root] aws_volume_attachment.ebs&#45;volume&#45;1&#45;attachment -->
<g id="node16" class="node"><title>[root] aws_volume_attachment.ebs&#45;volume&#45;1&#45;attachment</title>
<polygon fill="none" stroke="black" points="298,-396 0,-396 0,-360 298,-360 298,-396"/>
<text text-anchor="middle" x="149" y="-374.3" font-family="Times New Roman,serif" font-size="14.00">aws_volume_attachment.ebs&#45;volume&#45;1&#45;attachment</text>
</g>
<!-- [root] aws_volume_attachment.ebs&#45;volume&#45;1&#45;attachment&#45;&gt;[root] aws_ebs_volume.ebs&#45;volume&#45;1 -->
<g id="edge23" class="edge"><title>[root] aws_volume_attachment.ebs&#45;volume&#45;1&#45;attachment&#45;&gt;[root] aws_ebs_volume.ebs&#45;volume&#45;1</title>
<path fill="none" stroke="black" d="M149,-359.849C149,-322.832 149,-235.181 149,-190.386"/>
<polygon fill="black" stroke="black" points="152.5,-190.232 149,-180.232 145.5,-190.232 152.5,-190.232"/>
</g>
<!-- [root] aws_volume_attachment.ebs&#45;volume&#45;1&#45;attachment&#45;&gt;[root] aws_instance.example -->
<g id="edge24" class="edge"><title>[root] aws_volume_attachment.ebs&#45;volume&#45;1&#45;attachment&#45;&gt;[root] aws_instance.example</title>
<path fill="none" stroke="black" d="M225.412,-359.966C273.219,-349.308 334.705,-335.601 383.15,-324.801"/>
<polygon fill="black" stroke="black" points="383.969,-328.204 392.968,-322.612 382.446,-321.372 383.969,-328.204"/>
</g>
<!-- [root] aws_vpc.main&#45;&gt;[root] provider.aws -->
<g id="edge25" class="edge"><title>[root] aws_vpc.main&#45;&gt;[root] provider.aws</title>
<path fill="none" stroke="black" d="M930.264,-156.161C805.9,-143.813 476.795,-111.136 337.601,-97.315"/>
<polygon fill="black" stroke="black" points="337.811,-93.8188 327.514,-96.3135 337.12,-100.785 337.811,-93.8188"/>
</g>
<!-- [root] var.AWS_REGION -->
<g id="node20" class="node"><title>[root] var.AWS_REGION</title>
<polygon fill="none" stroke="black" points="333,-36 209,-36 209,-0 339,-0 339,-30 333,-36"/>
<polyline fill="none" stroke="black" points="333,-36 333,-30 "/>
<polyline fill="none" stroke="black" points="339,-30 333,-30 "/>
<text text-anchor="middle" x="274" y="-14.3" font-family="Times New Roman,serif" font-size="14.00">var.AWS_REGION</text>
</g>
<!-- [root] provider.aws&#45;&gt;[root] var.AWS_REGION -->
<g id="edge41" class="edge"><title>[root] provider.aws&#45;&gt;[root] var.AWS_REGION</title>
<path fill="none" stroke="black" d="M274,-71.6966C274,-63.9827 274,-54.7125 274,-46.1124"/>
<polygon fill="black" stroke="black" points="277.5,-46.1043 274,-36.1043 270.5,-46.1044 277.5,-46.1043"/>
</g>
<!-- [root] var.PATH_TO_PRIVATE_KEY -->
<g id="node21" class="node"><title>[root] var.PATH_TO_PRIVATE_KEY</title>
<polygon fill="none" stroke="black" points="1927.5,-396 1730.5,-396 1730.5,-360 1933.5,-360 1933.5,-390 1927.5,-396"/>
<polyline fill="none" stroke="black" points="1927.5,-396 1927.5,-390 "/>
<polyline fill="none" stroke="black" points="1933.5,-390 1927.5,-390 "/>
<text text-anchor="middle" x="1832" y="-374.3" font-family="Times New Roman,serif" font-size="14.00">var.PATH_TO_PRIVATE_KEY</text>
</g>
<!-- [root] meta.count&#45;boundary (EachMode fixup) -->
<g id="node23" class="node"><title>[root] meta.count&#45;boundary (EachMode fixup)</title>
<ellipse fill="none" stroke="black" cx="1261" cy="-450" rx="180.868" ry="18"/>
<text text-anchor="middle" x="1261" y="-446.3" font-family="Times New Roman,serif" font-size="14.00">[root] meta.count&#45;boundary (EachMode fixup)</text>
</g>
<!-- [root] meta.count&#45;boundary (EachMode fixup)&#45;&gt;[root] aws_route_table_association.main&#45;public&#45;1&#45;a -->
<g id="edge26" class="edge"><title>[root] meta.count&#45;boundary (EachMode fixup)&#45;&gt;[root] aws_route_table_association.main&#45;public&#45;1&#45;a</title>
<path fill="none" stroke="black" d="M1133.18,-437.249C1112.72,-435.441 1091.78,-433.635 1072,-432 862.995,-414.731 807.764,-416.518 595.917,-396.165"/>
<polygon fill="black" stroke="black" points="596,-392.656 585.709,-395.179 595.326,-399.624 596,-392.656"/>
</g>
<!-- [root] meta.count&#45;boundary (EachMode fixup)&#45;&gt;[root] aws_route_table_association.main&#45;public&#45;2&#45;a -->
<g id="edge27" class="edge"><title>[root] meta.count&#45;boundary (EachMode fixup)&#45;&gt;[root] aws_route_table_association.main&#45;public&#45;2&#45;a</title>
<path fill="none" stroke="black" d="M1157.98,-435.212C1077.18,-424.397 963.956,-409.243 875.429,-397.394"/>
<polygon fill="black" stroke="black" points="875.683,-393.897 865.307,-396.039 874.754,-400.835 875.683,-393.897"/>
</g>
<!-- [root] meta.count&#45;boundary (EachMode fixup)&#45;&gt;[root] aws_route_table_association.main&#45;public&#45;3&#45;a -->
<g id="edge28" class="edge"><title>[root] meta.count&#45;boundary (EachMode fixup)&#45;&gt;[root] aws_route_table_association.main&#45;public&#45;3&#45;a</title>
<path fill="none" stroke="black" d="M1206.26,-432.765C1172.29,-422.686 1128.37,-409.661 1092.28,-398.955"/>
<polygon fill="black" stroke="black" points="1092.9,-395.489 1082.32,-396.001 1090.91,-402.2 1092.9,-395.489"/>
</g>
<!-- [root] meta.count&#45;boundary (EachMode fixup)&#45;&gt;[root] aws_subnet.main&#45;private&#45;1 -->
<g id="edge29" class="edge"><title>[root] meta.count&#45;boundary (EachMode fixup)&#45;&gt;[root] aws_subnet.main&#45;private&#45;1</title>
<path fill="none" stroke="black" d="M1261,-431.697C1261,-423.983 1261,-414.712 1261,-406.112"/>
<polygon fill="black" stroke="black" points="1264.5,-406.104 1261,-396.104 1257.5,-406.104 1264.5,-406.104"/>
</g>
<!-- [root] meta.count&#45;boundary (EachMode fixup)&#45;&gt;[root] aws_subnet.main&#45;private&#45;2 -->
<g id="edge30" class="edge"><title>[root] meta.count&#45;boundary (EachMode fixup)&#45;&gt;[root] aws_subnet.main&#45;private&#45;2</title>
<path fill="none" stroke="black" d="M1304.61,-432.411C1330.37,-422.61 1363.21,-410.117 1390.65,-399.677"/>
<polygon fill="black" stroke="black" points="1392.01,-402.906 1400.11,-396.078 1389.52,-396.363 1392.01,-402.906"/>
</g>
<!-- [root] meta.count&#45;boundary (EachMode fixup)&#45;&gt;[root] aws_subnet.main&#45;private&#45;3 -->
<g id="edge31" class="edge"><title>[root] meta.count&#45;boundary (EachMode fixup)&#45;&gt;[root] aws_subnet.main&#45;private&#45;3</title>
<path fill="none" stroke="black" d="M1340.85,-433.811C1398.22,-422.898 1475.73,-408.154 1535.91,-396.707"/>
<polygon fill="black" stroke="black" points="1536.63,-400.134 1545.8,-394.827 1535.32,-393.257 1536.63,-400.134"/>
</g>
<!-- [root] meta.count&#45;boundary (EachMode fixup)&#45;&gt;[root] aws_volume_attachment.ebs&#45;volume&#45;1&#45;attachment -->
<g id="edge32" class="edge"><title>[root] meta.count&#45;boundary (EachMode fixup)&#45;&gt;[root] aws_volume_attachment.ebs&#45;volume&#45;1&#45;attachment</title>
<path fill="none" stroke="black" d="M1136.01,-437C1114.67,-435.167 1092.71,-433.418 1072,-432 735.735,-408.975 648.07,-421.959 308.38,-396.078"/>
<polygon fill="black" stroke="black" points="308.494,-392.577 298.256,-395.301 307.959,-399.556 308.494,-392.577"/>
</g>
<!-- [root] meta.count&#45;boundary (EachMode fixup)&#45;&gt;[root] var.PATH_TO_PRIVATE_KEY -->
<g id="edge33" class="edge"><title>[root] meta.count&#45;boundary (EachMode fixup)&#45;&gt;[root] var.PATH_TO_PRIVATE_KEY</title>
<path fill="none" stroke="black" d="M1380.77,-436.437C1471.15,-426.665 1598.48,-412.283 1720.15,-396.086"/>
<polygon fill="black" stroke="black" points="1720.95,-399.51 1730.4,-394.716 1720.02,-392.572 1720.95,-399.51"/>
</g>
<!-- [root] provider.aws (close) -->
<g id="node24" class="node"><title>[root] provider.aws (close)</title>
<ellipse fill="none" stroke="black" cx="954" cy="-450" rx="108.581" ry="18"/>
<text text-anchor="middle" x="954" y="-446.3" font-family="Times New Roman,serif" font-size="14.00">[root] provider.aws (close)</text>
</g>
<!-- [root] provider.aws (close)&#45;&gt;[root] aws_route_table_association.main&#45;public&#45;1&#45;a -->
<g id="edge34" class="edge"><title>[root] provider.aws (close)&#45;&gt;[root] aws_route_table_association.main&#45;public&#45;1&#45;a</title>
<path fill="none" stroke="black" d="M873.742,-437.831C795.599,-426.956 675.453,-410.236 583.19,-397.396"/>
<polygon fill="black" stroke="black" points="583.606,-393.92 573.219,-396.009 582.641,-400.854 583.606,-393.92"/>
</g>
<!-- [root] provider.aws (close)&#45;&gt;[root] aws_route_table_association.main&#45;public&#45;2&#45;a -->
<g id="edge35" class="edge"><title>[root] provider.aws (close)&#45;&gt;[root] aws_route_table_association.main&#45;public&#45;2&#45;a</title>
<path fill="none" stroke="black" d="M906.865,-433.725C875.682,-423.619 834.449,-410.257 800.534,-399.266"/>
<polygon fill="black" stroke="black" points="801.313,-395.839 790.721,-396.085 799.155,-402.498 801.313,-395.839"/>
</g>
<!-- [root] provider.aws (close)&#45;&gt;[root] aws_route_table_association.main&#45;public&#45;3&#45;a -->
<g id="edge36" class="edge"><title>[root] provider.aws (close)&#45;&gt;[root] aws_route_table_association.main&#45;public&#45;3&#45;a</title>
<path fill="none" stroke="black" d="M971.187,-432.055C979.866,-423.498 990.555,-412.959 1000.11,-403.535"/>
<polygon fill="black" stroke="black" points="1002.81,-405.788 1007.48,-396.275 997.9,-400.804 1002.81,-405.788"/>
</g>
<!-- [root] provider.aws (close)&#45;&gt;[root] aws_subnet.main&#45;private&#45;1 -->
<g id="edge37" class="edge"><title>[root] provider.aws (close)&#45;&gt;[root] aws_subnet.main&#45;private&#45;1</title>
<path fill="none" stroke="black" d="M1015.02,-435.087C1061.17,-424.564 1125.09,-409.988 1176.21,-398.333"/>
<polygon fill="black" stroke="black" points="1177.28,-401.678 1186.26,-396.043 1175.73,-394.853 1177.28,-401.678"/>
</g>
<!-- [root] provider.aws (close)&#45;&gt;[root] aws_subnet.main&#45;private&#45;2 -->
<g id="edge38" class="edge"><title>[root] provider.aws (close)&#45;&gt;[root] aws_subnet.main&#45;private&#45;2</title>
<path fill="none" stroke="black" d="M1032.01,-437.473C1045.03,-435.605 1058.39,-433.721 1071,-432 1193.01,-415.349 1226.48,-415.469 1351.81,-396.141"/>
<polygon fill="black" stroke="black" points="1352.45,-399.584 1361.79,-394.59 1351.37,-392.667 1352.45,-399.584"/>
</g>
<!-- [root] provider.aws (close)&#45;&gt;[root] aws_subnet.main&#45;private&#45;3 -->
<g id="edge39" class="edge"><title>[root] provider.aws (close)&#45;&gt;[root] aws_subnet.main&#45;private&#45;3</title>
<path fill="none" stroke="black" d="M1030.37,-437.149C1043.89,-435.267 1057.84,-433.463 1071,-432 1274.23,-409.411 1329.31,-422.486 1535.87,-396.066"/>
<polygon fill="black" stroke="black" points="1536.35,-399.533 1545.82,-394.778 1535.45,-392.59 1536.35,-399.533"/>
</g>
<!-- [root] provider.aws (close)&#45;&gt;[root] aws_volume_attachment.ebs&#45;volume&#45;1&#45;attachment -->
<g id="edge40" class="edge"><title>[root] provider.aws (close)&#45;&gt;[root] aws_volume_attachment.ebs&#45;volume&#45;1&#45;attachment</title>
<path fill="none" stroke="black" d="M857.198,-441.843C732.739,-432.466 509.649,-415.072 308.439,-396.124"/>
<polygon fill="black" stroke="black" points="308.553,-392.619 298.268,-395.163 307.894,-399.588 308.553,-392.619"/>
</g>
<!-- [root] root -->
<g id="node25" class="node"><title>[root] root</title>
<ellipse fill="none" stroke="black" cx="1107" cy="-522" rx="49.2915" ry="18"/>
<text text-anchor="middle" x="1107" y="-518.3" font-family="Times New Roman,serif" font-size="14.00">[root] root</text>
</g>
<!-- [root] root&#45;&gt;[root] meta.count&#45;boundary (EachMode fixup) -->
<g id="edge42" class="edge"><title>[root] root&#45;&gt;[root] meta.count&#45;boundary (EachMode fixup)</title>
<path fill="none" stroke="black" d="M1136.69,-507.503C1158.86,-497.428 1189.56,-483.471 1214.91,-471.95"/>
<polygon fill="black" stroke="black" points="1216.68,-474.991 1224.33,-467.667 1213.78,-468.619 1216.68,-474.991"/>
</g>
<!-- [root] root&#45;&gt;[root] provider.aws (close) -->
<g id="edge43" class="edge"><title>[root] root&#45;&gt;[root] provider.aws (close)</title>
<path fill="none" stroke="black" d="M1077.5,-507.503C1055.17,-497.287 1024.12,-483.08 998.737,-471.468"/>
<polygon fill="black" stroke="black" points="999.867,-468.136 989.317,-467.158 996.955,-474.501 999.867,-468.136"/>
</g>
</g>
</svg>
