<?xml version="1.0" encoding="UTF-8" standalone="no"?>
<!DOCTYPE svg PUBLIC "-//W3C//DTD SVG 1.1//EN"
 "http://www.w3.org/Graphics/SVG/1.1/DTD/svg11.dtd">
<!-- Generated by graphviz version 2.38.0 (20140413.2041)
 -->
<!-- Title: %3 Pages: 1 -->
<svg width="1907pt" height="548pt"
 viewBox="0.00 0.00 1906.50 548.00" xmlns="http://www.w3.org/2000/svg" xmlns:xlink="http://www.w3.org/1999/xlink">
<g id="graph0" class="graph" transform="scale(1 1) rotate(0) translate(4 544)">
<title>%3</title>
<polygon fill="white" stroke="none" points="-4,4 -4,-544 1902.5,-544 1902.5,4 -4,4"/>
<!-- [root] aws_instance.example -->
<g id="node1" class="node"><title>[root] aws_instance.example</title>
<polygon fill="none" stroke="black" points="263,-396 123,-396 123,-360 263,-360 263,-396"/>
<text text-anchor="middle" x="193" y="-374.3" font-family="Times New Roman,serif" font-size="14.00">aws_instance.example</text>
</g>
<!-- [root] aws_key_pair.devopsmonks -->
<g id="node3" class="node"><title>[root] aws_key_pair.devopsmonks</title>
<polygon fill="none" stroke="black" points="176,-324 0,-324 0,-288 176,-288 176,-324"/>
<text text-anchor="middle" x="88" y="-302.3" font-family="Times New Roman,serif" font-size="14.00">aws_key_pair.devopsmonks</text>
</g>
<!-- [root] aws_instance.example&#45;&gt;[root] aws_key_pair.devopsmonks -->
<g id="edge1" class="edge"><title>[root] aws_instance.example&#45;&gt;[root] aws_key_pair.devopsmonks</title>
<path fill="none" stroke="black" d="M167.314,-359.876C153.712,-350.808 136.828,-339.552 122.139,-329.759"/>
<polygon fill="black" stroke="black" points="124.047,-326.825 113.785,-324.19 120.164,-332.649 124.047,-326.825"/>
</g>
<!-- [root] aws_security_group.allow&#45;ssh -->
<g id="node8" class="node"><title>[root] aws_security_group.allow&#45;ssh</title>
<polygon fill="none" stroke="black" points="501,-252 315,-252 315,-216 501,-216 501,-252"/>
<text text-anchor="middle" x="408" y="-230.3" font-family="Times New Roman,serif" font-size="14.00">aws_security_group.allow&#45;ssh</text>
</g>
<!-- [root] aws_instance.example&#45;&gt;[root] aws_security_group.allow&#45;ssh -->
<g id="edge2" class="edge"><title>[root] aws_instance.example&#45;&gt;[root] aws_security_group.allow&#45;ssh</title>
<path fill="none" stroke="black" d="M194.134,-359.744C196.38,-339.722 203.071,-307.031 223,-288 236.419,-275.186 273.021,-263.514 310.162,-254.405"/>
<polygon fill="black" stroke="black" points="311.203,-257.755 320.115,-252.026 309.576,-250.947 311.203,-257.755"/>
</g>
<!-- [root] aws_subnet.main&#45;public&#45;1 -->
<g id="node12" class="node"><title>[root] aws_subnet.main&#45;public&#45;1</title>
<polygon fill="none" stroke="black" points="497.5,-324 334.5,-324 334.5,-288 497.5,-288 497.5,-324"/>
<text text-anchor="middle" x="416" y="-302.3" font-family="Times New Roman,serif" font-size="14.00">aws_subnet.main&#45;public&#45;1</text>
</g>
<!-- [root] aws_instance.example&#45;&gt;[root] aws_subnet.main&#45;public&#45;1 -->
<g id="edge3" class="edge"><title>[root] aws_instance.example&#45;&gt;[root] aws_subnet.main&#45;public&#45;1</title>
<path fill="none" stroke="black" d="M247.267,-359.966C278.831,-350.057 318.791,-337.514 351.9,-327.121"/>
<polygon fill="black" stroke="black" points="352.997,-330.445 361.49,-324.111 350.901,-323.766 352.997,-330.445"/>
</g>
<!-- [root] var.AMIS -->
<g id="node17" class="node"><title>[root] var.AMIS</title>
<polygon fill="none" stroke="black" points="298,-324 232,-324 232,-288 304,-288 304,-318 298,-324"/>
<polyline fill="none" stroke="black" points="298,-324 298,-318 "/>
<polyline fill="none" stroke="black" points="304,-318 298,-318 "/>
<text text-anchor="middle" x="268" y="-302.3" font-family="Times New Roman,serif" font-size="14.00">var.AMIS</text>
</g>
<!-- [root] aws_instance.example&#45;&gt;[root] var.AMIS -->
<g id="edge4" class="edge"><title>[root] aws_instance.example&#45;&gt;[root] var.AMIS</title>
<path fill="none" stroke="black" d="M211.539,-359.697C220.803,-351.05 232.162,-340.449 242.257,-331.027"/>
<polygon fill="black" stroke="black" points="244.751,-333.486 249.674,-324.104 239.975,-328.369 244.751,-333.486"/>
</g>
<!-- [root] aws_internet_gateway.main&#45;gw -->
<g id="node2" class="node"><title>[root] aws_internet_gateway.main&#45;gw</title>
<polygon fill="none" stroke="black" points="747,-252 557,-252 557,-216 747,-216 747,-252"/>
<text text-anchor="middle" x="652" y="-230.3" font-family="Times New Roman,serif" font-size="14.00">aws_internet_gateway.main&#45;gw</text>
</g>
<!-- [root] aws_vpc.main -->
<g id="node15" class="node"><title>[root] aws_vpc.main</title>
<polygon fill="none" stroke="black" points="895.5,-180 798.5,-180 798.5,-144 895.5,-144 895.5,-180"/>
<text text-anchor="middle" x="847" y="-158.3" font-family="Times New Roman,serif" font-size="14.00">aws_vpc.main</text>
</g>
<!-- [root] aws_internet_gateway.main&#45;gw&#45;&gt;[root] aws_vpc.main -->
<g id="edge5" class="edge"><title>[root] aws_internet_gateway.main&#45;gw&#45;&gt;[root] aws_vpc.main</title>
<path fill="none" stroke="black" d="M699.702,-215.876C726.952,-206.094 761.297,-193.765 789.966,-183.474"/>
<polygon fill="black" stroke="black" points="791.223,-186.741 799.453,-180.068 788.858,-180.153 791.223,-186.741"/>
</g>
<!-- [root] provider.aws -->
<g id="node16" class="node"><title>[root] provider.aws</title>
<polygon fill="none" stroke="black" points="461,-108 379.39,-90 461,-72 542.61,-90 461,-108"/>
<text text-anchor="middle" x="461" y="-86.3" font-family="Times New Roman,serif" font-size="14.00">provider.aws</text>
</g>
<!-- [root] aws_key_pair.devopsmonks&#45;&gt;[root] provider.aws -->
<g id="edge6" class="edge"><title>[root] aws_key_pair.devopsmonks&#45;&gt;[root] provider.aws</title>
<path fill="none" stroke="black" d="M84.0219,-287.995C80.5212,-268.515 78.1531,-236.634 94,-216 162.028,-127.421 296.052,-101.155 381.94,-93.6373"/>
<polygon fill="black" stroke="black" points="382.224,-97.1259 391.909,-92.8298 381.659,-90.1487 382.224,-97.1259"/>
</g>
<!-- [root] var.PATH_TO_PUBLIC_KEY -->
<g id="node21" class="node"><title>[root] var.PATH_TO_PUBLIC_KEY</title>
<polygon fill="none" stroke="black" points="291,-252 103,-252 103,-216 297,-216 297,-246 291,-252"/>
<polyline fill="none" stroke="black" points="291,-252 291,-246 "/>
<polyline fill="none" stroke="black" points="297,-246 291,-246 "/>
<text text-anchor="middle" x="200" y="-230.3" font-family="Times New Roman,serif" font-size="14.00">var.PATH_TO_PUBLIC_KEY</text>
</g>
<!-- [root] aws_key_pair.devopsmonks&#45;&gt;[root] var.PATH_TO_PUBLIC_KEY -->
<g id="edge7" class="edge"><title>[root] aws_key_pair.devopsmonks&#45;&gt;[root] var.PATH_TO_PUBLIC_KEY</title>
<path fill="none" stroke="black" d="M115.398,-287.876C129.907,-278.808 147.916,-267.552 163.585,-257.759"/>
<polygon fill="black" stroke="black" points="165.871,-260.458 172.496,-252.19 162.161,-254.522 165.871,-260.458"/>
</g>
<!-- [root] aws_route_table.main&#45;public -->
<g id="node4" class="node"><title>[root] aws_route_table.main&#45;public</title>
<polygon fill="none" stroke="black" points="759.5,-324 582.5,-324 582.5,-288 759.5,-288 759.5,-324"/>
<text text-anchor="middle" x="671" y="-302.3" font-family="Times New Roman,serif" font-size="14.00">aws_route_table.main&#45;public</text>
</g>
<!-- [root] aws_route_table.main&#45;public&#45;&gt;[root] aws_internet_gateway.main&#45;gw -->
<g id="edge8" class="edge"><title>[root] aws_route_table.main&#45;public&#45;&gt;[root] aws_internet_gateway.main&#45;gw</title>
<path fill="none" stroke="black" d="M666.303,-287.697C664.187,-279.898 661.638,-270.509 659.282,-261.829"/>
<polygon fill="black" stroke="black" points="662.64,-260.838 656.643,-252.104 655.884,-262.672 662.64,-260.838"/>
</g>
<!-- [root] aws_route_table_association.main&#45;public&#45;1&#45;a -->
<g id="node5" class="node"><title>[root] aws_route_table_association.main&#45;public&#45;1&#45;a</title>
<polygon fill="none" stroke="black" points="550.5,-396 281.5,-396 281.5,-360 550.5,-360 550.5,-396"/>
<text text-anchor="middle" x="416" y="-374.3" font-family="Times New Roman,serif" font-size="14.00">aws_route_table_association.main&#45;public&#45;1&#45;a</text>
</g>
<!-- [root] aws_route_table_association.main&#45;public&#45;1&#45;a&#45;&gt;[root] aws_route_table.main&#45;public -->
<g id="edge9" class="edge"><title>[root] aws_route_table_association.main&#45;public&#45;1&#45;a&#45;&gt;[root] aws_route_table.main&#45;public</title>
<path fill="none" stroke="black" d="M478.054,-359.966C514.458,-349.972 560.627,-337.298 598.675,-326.854"/>
<polygon fill="black" stroke="black" points="599.951,-330.133 608.668,-324.111 598.098,-323.383 599.951,-330.133"/>
</g>
<!-- [root] aws_route_table_association.main&#45;public&#45;1&#45;a&#45;&gt;[root] aws_subnet.main&#45;public&#45;1 -->
<g id="edge10" class="edge"><title>[root] aws_route_table_association.main&#45;public&#45;1&#45;a&#45;&gt;[root] aws_subnet.main&#45;public&#45;1</title>
<path fill="none" stroke="black" d="M416,-359.697C416,-351.983 416,-342.712 416,-334.112"/>
<polygon fill="black" stroke="black" points="419.5,-334.104 416,-324.104 412.5,-334.104 419.5,-334.104"/>
</g>
<!-- [root] aws_route_table_association.main&#45;public&#45;2&#45;a -->
<g id="node6" class="node"><title>[root] aws_route_table_association.main&#45;public&#45;2&#45;a</title>
<polygon fill="none" stroke="black" points="837.5,-396 568.5,-396 568.5,-360 837.5,-360 837.5,-396"/>
<text text-anchor="middle" x="703" y="-374.3" font-family="Times New Roman,serif" font-size="14.00">aws_route_table_association.main&#45;public&#45;2&#45;a</text>
</g>
<!-- [root] aws_route_table_association.main&#45;public&#45;2&#45;a&#45;&gt;[root] aws_route_table.main&#45;public -->
<g id="edge11" class="edge"><title>[root] aws_route_table_association.main&#45;public&#45;2&#45;a&#45;&gt;[root] aws_route_table.main&#45;public</title>
<path fill="none" stroke="black" d="M695.09,-359.697C691.447,-351.728 687.046,-342.1 683.006,-333.264"/>
<polygon fill="black" stroke="black" points="686.16,-331.744 678.819,-324.104 679.794,-334.654 686.16,-331.744"/>
</g>
<!-- [root] aws_subnet.main&#45;public&#45;2 -->
<g id="node13" class="node"><title>[root] aws_subnet.main&#45;public&#45;2</title>
<polygon fill="none" stroke="black" points="928.5,-252 765.5,-252 765.5,-216 928.5,-216 928.5,-252"/>
<text text-anchor="middle" x="847" y="-230.3" font-family="Times New Roman,serif" font-size="14.00">aws_subnet.main&#45;public&#45;2</text>
</g>
<!-- [root] aws_route_table_association.main&#45;public&#45;2&#45;a&#45;&gt;[root] aws_subnet.main&#45;public&#45;2 -->
<g id="edge12" class="edge"><title>[root] aws_route_table_association.main&#45;public&#45;2&#45;a&#45;&gt;[root] aws_subnet.main&#45;public&#45;2</title>
<path fill="none" stroke="black" d="M725.714,-359.939C738.552,-349.943 754.653,-336.799 768,-324 789.208,-303.663 811.233,-278.454 826.623,-260.063"/>
<polygon fill="black" stroke="black" points="829.509,-262.066 833.2,-252.135 824.121,-257.597 829.509,-262.066"/>
</g>
<!-- [root] aws_route_table_association.main&#45;public&#45;3&#45;a -->
<g id="node7" class="node"><title>[root] aws_route_table_association.main&#45;public&#45;3&#45;a</title>
<polygon fill="none" stroke="black" points="1124.5,-396 855.5,-396 855.5,-360 1124.5,-360 1124.5,-396"/>
<text text-anchor="middle" x="990" y="-374.3" font-family="Times New Roman,serif" font-size="14.00">aws_route_table_association.main&#45;public&#45;3&#45;a</text>
</g>
<!-- [root] aws_route_table_association.main&#45;public&#45;3&#45;a&#45;&gt;[root] aws_route_table.main&#45;public -->
<g id="edge13" class="edge"><title>[root] aws_route_table_association.main&#45;public&#45;3&#45;a&#45;&gt;[root] aws_route_table.main&#45;public</title>
<path fill="none" stroke="black" d="M912.372,-359.966C865.873,-349.762 806.638,-336.764 758.486,-326.198"/>
<polygon fill="black" stroke="black" points="759.217,-322.775 748.7,-324.05 757.717,-329.612 759.217,-322.775"/>
</g>
<!-- [root] aws_subnet.main&#45;public&#45;3 -->
<g id="node14" class="node"><title>[root] aws_subnet.main&#45;public&#45;3</title>
<polygon fill="none" stroke="black" points="1109.5,-252 946.5,-252 946.5,-216 1109.5,-216 1109.5,-252"/>
<text text-anchor="middle" x="1028" y="-230.3" font-family="Times New Roman,serif" font-size="14.00">aws_subnet.main&#45;public&#45;3</text>
</g>
<!-- [root] aws_route_table_association.main&#45;public&#45;3&#45;a&#45;&gt;[root] aws_subnet.main&#45;public&#45;3 -->
<g id="edge14" class="edge"><title>[root] aws_route_table_association.main&#45;public&#45;3&#45;a&#45;&gt;[root] aws_subnet.main&#45;public&#45;3</title>
<path fill="none" stroke="black" d="M994.584,-359.871C1001.09,-335.564 1013.06,-290.819 1020.77,-262.013"/>
<polygon fill="black" stroke="black" points="1024.2,-262.754 1023.4,-252.189 1017.43,-260.945 1024.2,-262.754"/>
</g>
<!-- [root] aws_security_group.allow&#45;ssh&#45;&gt;[root] aws_vpc.main -->
<g id="edge15" class="edge"><title>[root] aws_security_group.allow&#45;ssh&#45;&gt;[root] aws_vpc.main</title>
<path fill="none" stroke="black" d="M501.101,-218.155C587.999,-204.299 714.991,-184.049 788.488,-172.33"/>
<polygon fill="black" stroke="black" points="789.17,-175.766 798.494,-170.734 788.067,-168.853 789.17,-175.766"/>
</g>
<!-- [root] aws_subnet.main&#45;private&#45;1 -->
<g id="node9" class="node"><title>[root] aws_subnet.main&#45;private&#45;1</title>
<polygon fill="none" stroke="black" points="1309,-396 1143,-396 1143,-360 1309,-360 1309,-396"/>
<text text-anchor="middle" x="1226" y="-374.3" font-family="Times New Roman,serif" font-size="14.00">aws_subnet.main&#45;private&#45;1</text>
</g>
<!-- [root] aws_subnet.main&#45;private&#45;1&#45;&gt;[root] aws_vpc.main -->
<g id="edge16" class="edge"><title>[root] aws_subnet.main&#45;private&#45;1&#45;&gt;[root] aws_vpc.main</title>
<path fill="none" stroke="black" d="M1219.84,-359.861C1206.86,-326.342 1173.3,-252.227 1119,-216 1084.83,-193.207 975.255,-177.242 906.051,-169.136"/>
<polygon fill="black" stroke="black" points="906.062,-165.615 895.728,-167.95 905.263,-172.569 906.062,-165.615"/>
</g>
<!-- [root] aws_subnet.main&#45;private&#45;2 -->
<g id="node10" class="node"><title>[root] aws_subnet.main&#45;private&#45;2</title>
<polygon fill="none" stroke="black" points="1493,-396 1327,-396 1327,-360 1493,-360 1493,-396"/>
<text text-anchor="middle" x="1410" y="-374.3" font-family="Times New Roman,serif" font-size="14.00">aws_subnet.main&#45;private&#45;2</text>
</g>
<!-- [root] aws_subnet.main&#45;private&#45;2&#45;&gt;[root] aws_vpc.main -->
<g id="edge17" class="edge"><title>[root] aws_subnet.main&#45;private&#45;2&#45;&gt;[root] aws_vpc.main</title>
<path fill="none" stroke="black" d="M1389.09,-359.935C1347.02,-326.547 1247.93,-252.653 1152,-216 1069.96,-184.654 968.391,-171.731 905.645,-166.483"/>
<polygon fill="black" stroke="black" points="905.784,-162.983 895.537,-165.676 905.227,-169.961 905.784,-162.983"/>
</g>
<!-- [root] aws_subnet.main&#45;private&#45;3 -->
<g id="node11" class="node"><title>[root] aws_subnet.main&#45;private&#45;3</title>
<polygon fill="none" stroke="black" points="1677,-396 1511,-396 1511,-360 1677,-360 1677,-396"/>
<text text-anchor="middle" x="1594" y="-374.3" font-family="Times New Roman,serif" font-size="14.00">aws_subnet.main&#45;private&#45;3</text>
</g>
<!-- [root] aws_subnet.main&#45;private&#45;3&#45;&gt;[root] aws_vpc.main -->
<g id="edge18" class="edge"><title>[root] aws_subnet.main&#45;private&#45;3&#45;&gt;[root] aws_vpc.main</title>
<path fill="none" stroke="black" d="M1560.46,-359.909C1494.04,-326.806 1340.29,-253.877 1203,-216 1100.52,-187.726 977.018,-173.624 905.698,-167.345"/>
<polygon fill="black" stroke="black" points="905.826,-163.843 895.563,-166.475 905.227,-170.818 905.826,-163.843"/>
</g>
<!-- [root] aws_subnet.main&#45;public&#45;1&#45;&gt;[root] aws_vpc.main -->
<g id="edge19" class="edge"><title>[root] aws_subnet.main&#45;public&#45;1&#45;&gt;[root] aws_vpc.main</title>
<path fill="none" stroke="black" d="M451.187,-287.796C469.401,-278.247 491.611,-265.574 510,-252 528.717,-238.183 527.226,-226.472 548,-216 624.924,-177.224 725.466,-166.356 788.135,-163.567"/>
<polygon fill="black" stroke="black" points="788.383,-167.06 798.239,-163.173 788.11,-160.065 788.383,-167.06"/>
</g>
<!-- [root] aws_subnet.main&#45;public&#45;2&#45;&gt;[root] aws_vpc.main -->
<g id="edge20" class="edge"><title>[root] aws_subnet.main&#45;public&#45;2&#45;&gt;[root] aws_vpc.main</title>
<path fill="none" stroke="black" d="M847,-215.697C847,-207.983 847,-198.712 847,-190.112"/>
<polygon fill="black" stroke="black" points="850.5,-190.104 847,-180.104 843.5,-190.104 850.5,-190.104"/>
</g>
<!-- [root] aws_subnet.main&#45;public&#45;3&#45;&gt;[root] aws_vpc.main -->
<g id="edge21" class="edge"><title>[root] aws_subnet.main&#45;public&#45;3&#45;&gt;[root] aws_vpc.main</title>
<path fill="none" stroke="black" d="M983.722,-215.876C958.649,-206.179 927.104,-193.98 900.635,-183.743"/>
<polygon fill="black" stroke="black" points="901.723,-180.411 891.134,-180.068 899.198,-186.94 901.723,-180.411"/>
</g>
<!-- [root] aws_vpc.main&#45;&gt;[root] provider.aws -->
<g id="edge22" class="edge"><title>[root] aws_vpc.main&#45;&gt;[root] provider.aws</title>
<path fill="none" stroke="black" d="M798.113,-152.134C725.262,-138.923 588.764,-114.17 513.74,-100.564"/>
<polygon fill="black" stroke="black" points="514.039,-97.0615 503.575,-98.7208 512.79,-103.949 514.039,-97.0615"/>
</g>
<!-- [root] var.AWS_PROFILE -->
<g id="node18" class="node"><title>[root] var.AWS_PROFILE</title>
<polygon fill="none" stroke="black" points="447,-36 319,-36 319,-0 453,-0 453,-30 447,-36"/>
<polyline fill="none" stroke="black" points="447,-36 447,-30 "/>
<polyline fill="none" stroke="black" points="453,-30 447,-30 "/>
<text text-anchor="middle" x="386" y="-14.3" font-family="Times New Roman,serif" font-size="14.00">var.AWS_PROFILE</text>
</g>
<!-- [root] provider.aws&#45;&gt;[root] var.AWS_PROFILE -->
<g id="edge38" class="edge"><title>[root] provider.aws&#45;&gt;[root] var.AWS_PROFILE</title>
<path fill="none" stroke="black" d="M446.182,-75.1703C436.401,-66.041 423.322,-53.8337 411.855,-43.1315"/>
<polygon fill="black" stroke="black" points="413.933,-40.2836 404.235,-36.019 409.157,-45.401 413.933,-40.2836"/>
</g>
<!-- [root] var.AWS_REGION -->
<g id="node19" class="node"><title>[root] var.AWS_REGION</title>
<polygon fill="none" stroke="black" points="595,-36 471,-36 471,-0 601,-0 601,-30 595,-36"/>
<polyline fill="none" stroke="black" points="595,-36 595,-30 "/>
<polyline fill="none" stroke="black" points="601,-30 595,-30 "/>
<text text-anchor="middle" x="536" y="-14.3" font-family="Times New Roman,serif" font-size="14.00">var.AWS_REGION</text>
</g>
<!-- [root] provider.aws&#45;&gt;[root] var.AWS_REGION -->
<g id="edge39" class="edge"><title>[root] provider.aws&#45;&gt;[root] var.AWS_REGION</title>
<path fill="none" stroke="black" d="M475.818,-75.1703C485.599,-66.041 498.678,-53.8337 510.145,-43.1315"/>
<polygon fill="black" stroke="black" points="512.843,-45.401 517.765,-36.019 508.067,-40.2836 512.843,-45.401"/>
</g>
<!-- [root] var.PATH_TO_PRIVATE_KEY -->
<g id="node20" class="node"><title>[root] var.PATH_TO_PRIVATE_KEY</title>
<polygon fill="none" stroke="black" points="1892.5,-396 1695.5,-396 1695.5,-360 1898.5,-360 1898.5,-390 1892.5,-396"/>
<polyline fill="none" stroke="black" points="1892.5,-396 1892.5,-390 "/>
<polyline fill="none" stroke="black" points="1898.5,-390 1892.5,-390 "/>
<text text-anchor="middle" x="1797" y="-374.3" font-family="Times New Roman,serif" font-size="14.00">var.PATH_TO_PRIVATE_KEY</text>
</g>
<!-- [root] meta.count&#45;boundary (EachMode fixup) -->
<g id="node22" class="node"><title>[root] meta.count&#45;boundary (EachMode fixup)</title>
<ellipse fill="none" stroke="black" cx="1226" cy="-450" rx="180.868" ry="18"/>
<text text-anchor="middle" x="1226" y="-446.3" font-family="Times New Roman,serif" font-size="14.00">[root] meta.count&#45;boundary (EachMode fixup)</text>
</g>
<!-- [root] meta.count&#45;boundary (EachMode fixup)&#45;&gt;[root] aws_instance.example -->
<g id="edge23" class="edge"><title>[root] meta.count&#45;boundary (EachMode fixup)&#45;&gt;[root] aws_instance.example</title>
<path fill="none" stroke="black" d="M1101.01,-437C1079.67,-435.167 1057.71,-433.418 1037,-432 700.735,-408.975 611.267,-439.348 273.182,-396.017"/>
<polygon fill="black" stroke="black" points="273.473,-392.526 263.107,-394.714 272.575,-399.468 273.473,-392.526"/>
</g>
<!-- [root] meta.count&#45;boundary (EachMode fixup)&#45;&gt;[root] aws_route_table_association.main&#45;public&#45;1&#45;a -->
<g id="edge24" class="edge"><title>[root] meta.count&#45;boundary (EachMode fixup)&#45;&gt;[root] aws_route_table_association.main&#45;public&#45;1&#45;a</title>
<path fill="none" stroke="black" d="M1098.18,-437.249C1077.72,-435.441 1056.78,-433.635 1037,-432 827.995,-414.731 772.764,-416.518 560.917,-396.165"/>
<polygon fill="black" stroke="black" points="561,-392.656 550.709,-395.179 560.326,-399.624 561,-392.656"/>
</g>
<!-- [root] meta.count&#45;boundary (EachMode fixup)&#45;&gt;[root] aws_route_table_association.main&#45;public&#45;2&#45;a -->
<g id="edge25" class="edge"><title>[root] meta.count&#45;boundary (EachMode fixup)&#45;&gt;[root] aws_route_table_association.main&#45;public&#45;2&#45;a</title>
<path fill="none" stroke="black" d="M1122.98,-435.212C1042.18,-424.397 928.956,-409.243 840.429,-397.394"/>
<polygon fill="black" stroke="black" points="840.683,-393.897 830.307,-396.039 839.754,-400.835 840.683,-393.897"/>
</g>
<!-- [root] meta.count&#45;boundary (EachMode fixup)&#45;&gt;[root] aws_route_table_association.main&#45;public&#45;3&#45;a -->
<g id="edge26" class="edge"><title>[root] meta.count&#45;boundary (EachMode fixup)&#45;&gt;[root] aws_route_table_association.main&#45;public&#45;3&#45;a</title>
<path fill="none" stroke="black" d="M1171.26,-432.765C1137.29,-422.686 1093.37,-409.661 1057.28,-398.955"/>
<polygon fill="black" stroke="black" points="1057.9,-395.489 1047.32,-396.001 1055.91,-402.2 1057.9,-395.489"/>
</g>
<!-- [root] meta.count&#45;boundary (EachMode fixup)&#45;&gt;[root] aws_subnet.main&#45;private&#45;1 -->
<g id="edge27" class="edge"><title>[root] meta.count&#45;boundary (EachMode fixup)&#45;&gt;[root] aws_subnet.main&#45;private&#45;1</title>
<path fill="none" stroke="black" d="M1226,-431.697C1226,-423.983 1226,-414.712 1226,-406.112"/>
<polygon fill="black" stroke="black" points="1229.5,-406.104 1226,-396.104 1222.5,-406.104 1229.5,-406.104"/>
</g>
<!-- [root] meta.count&#45;boundary (EachMode fixup)&#45;&gt;[root] aws_subnet.main&#45;private&#45;2 -->
<g id="edge28" class="edge"><title>[root] meta.count&#45;boundary (EachMode fixup)&#45;&gt;[root] aws_subnet.main&#45;private&#45;2</title>
<path fill="none" stroke="black" d="M1269.61,-432.411C1295.37,-422.61 1328.21,-410.117 1355.65,-399.677"/>
<polygon fill="black" stroke="black" points="1357.01,-402.906 1365.11,-396.078 1354.52,-396.363 1357.01,-402.906"/>
</g>
<!-- [root] meta.count&#45;boundary (EachMode fixup)&#45;&gt;[root] aws_subnet.main&#45;private&#45;3 -->
<g id="edge29" class="edge"><title>[root] meta.count&#45;boundary (EachMode fixup)&#45;&gt;[root] aws_subnet.main&#45;private&#45;3</title>
<path fill="none" stroke="black" d="M1305.85,-433.811C1363.22,-422.898 1440.73,-408.154 1500.91,-396.707"/>
<polygon fill="black" stroke="black" points="1501.63,-400.134 1510.8,-394.827 1500.32,-393.257 1501.63,-400.134"/>
</g>
<!-- [root] meta.count&#45;boundary (EachMode fixup)&#45;&gt;[root] var.PATH_TO_PRIVATE_KEY -->
<g id="edge30" class="edge"><title>[root] meta.count&#45;boundary (EachMode fixup)&#45;&gt;[root] var.PATH_TO_PRIVATE_KEY</title>
<path fill="none" stroke="black" d="M1345.77,-436.437C1436.15,-426.665 1563.48,-412.283 1685.15,-396.086"/>
<polygon fill="black" stroke="black" points="1685.95,-399.51 1695.4,-394.716 1685.02,-392.572 1685.95,-399.51"/>
</g>
<!-- [root] provider.aws (close) -->
<g id="node23" class="node"><title>[root] provider.aws (close)</title>
<ellipse fill="none" stroke="black" cx="919" cy="-450" rx="108.581" ry="18"/>
<text text-anchor="middle" x="919" y="-446.3" font-family="Times New Roman,serif" font-size="14.00">[root] provider.aws (close)</text>
</g>
<!-- [root] provider.aws (close)&#45;&gt;[root] aws_instance.example -->
<g id="edge31" class="edge"><title>[root] provider.aws (close)&#45;&gt;[root] aws_instance.example</title>
<path fill="none" stroke="black" d="M815.154,-444.664C689.082,-438.457 469.934,-424.647 273.075,-396.047"/>
<polygon fill="black" stroke="black" points="273.527,-392.576 263.125,-394.586 272.51,-399.502 273.527,-392.576"/>
</g>
<!-- [root] provider.aws (close)&#45;&gt;[root] aws_route_table_association.main&#45;public&#45;1&#45;a -->
<g id="edge32" class="edge"><title>[root] provider.aws (close)&#45;&gt;[root] aws_route_table_association.main&#45;public&#45;1&#45;a</title>
<path fill="none" stroke="black" d="M838.742,-437.831C760.599,-426.956 640.453,-410.236 548.19,-397.396"/>
<polygon fill="black" stroke="black" points="548.606,-393.92 538.219,-396.009 547.641,-400.854 548.606,-393.92"/>
</g>
<!-- [root] provider.aws (close)&#45;&gt;[root] aws_route_table_association.main&#45;public&#45;2&#45;a -->
<g id="edge33" class="edge"><title>[root] provider.aws (close)&#45;&gt;[root] aws_route_table_association.main&#45;public&#45;2&#45;a</title>
<path fill="none" stroke="black" d="M871.865,-433.725C840.682,-423.619 799.449,-410.257 765.534,-399.266"/>
<polygon fill="black" stroke="black" points="766.313,-395.839 755.721,-396.085 764.155,-402.498 766.313,-395.839"/>
</g>
<!-- [root] provider.aws (close)&#45;&gt;[root] aws_route_table_association.main&#45;public&#45;3&#45;a -->
<g id="edge34" class="edge"><title>[root] provider.aws (close)&#45;&gt;[root] aws_route_table_association.main&#45;public&#45;3&#45;a</title>
<path fill="none" stroke="black" d="M936.187,-432.055C944.866,-423.498 955.555,-412.959 965.114,-403.535"/>
<polygon fill="black" stroke="black" points="967.814,-405.788 972.478,-396.275 962.9,-400.804 967.814,-405.788"/>
</g>
<!-- [root] provider.aws (close)&#45;&gt;[root] aws_subnet.main&#45;private&#45;1 -->
<g id="edge35" class="edge"><title>[root] provider.aws (close)&#45;&gt;[root] aws_subnet.main&#45;private&#45;1</title>
<path fill="none" stroke="black" d="M980.02,-435.087C1026.17,-424.564 1090.09,-409.988 1141.21,-398.333"/>
<polygon fill="black" stroke="black" points="1142.28,-401.678 1151.26,-396.043 1140.73,-394.853 1142.28,-401.678"/>
</g>
<!-- [root] provider.aws (close)&#45;&gt;[root] aws_subnet.main&#45;private&#45;2 -->
<g id="edge36" class="edge"><title>[root] provider.aws (close)&#45;&gt;[root] aws_subnet.main&#45;private&#45;2</title>
<path fill="none" stroke="black" d="M997.013,-437.473C1010.03,-435.605 1023.39,-433.721 1036,-432 1158.01,-415.349 1191.48,-415.469 1316.81,-396.141"/>
<polygon fill="black" stroke="black" points="1317.45,-399.584 1326.79,-394.59 1316.37,-392.667 1317.45,-399.584"/>
</g>
<!-- [root] provider.aws (close)&#45;&gt;[root] aws_subnet.main&#45;private&#45;3 -->
<g id="edge37" class="edge"><title>[root] provider.aws (close)&#45;&gt;[root] aws_subnet.main&#45;private&#45;3</title>
<path fill="none" stroke="black" d="M995.372,-437.149C1008.89,-435.267 1022.84,-433.463 1036,-432 1239.23,-409.411 1294.31,-422.486 1500.87,-396.066"/>
<polygon fill="black" stroke="black" points="1501.35,-399.533 1510.82,-394.778 1500.45,-392.59 1501.35,-399.533"/>
</g>
<!-- [root] root -->
<g id="node24" class="node"><title>[root] root</title>
<ellipse fill="none" stroke="black" cx="1072" cy="-522" rx="49.2915" ry="18"/>
<text text-anchor="middle" x="1072" y="-518.3" font-family="Times New Roman,serif" font-size="14.00">[root] root</text>
</g>
<!-- [root] root&#45;&gt;[root] meta.count&#45;boundary (EachMode fixup) -->
<g id="edge40" class="edge"><title>[root] root&#45;&gt;[root] meta.count&#45;boundary (EachMode fixup)</title>
<path fill="none" stroke="black" d="M1101.69,-507.503C1123.86,-497.428 1154.56,-483.471 1179.91,-471.95"/>
<polygon fill="black" stroke="black" points="1181.68,-474.991 1189.33,-467.667 1178.78,-468.619 1181.68,-474.991"/>
</g>
<!-- [root] root&#45;&gt;[root] provider.aws (close) -->
<g id="edge41" class="edge"><title>[root] root&#45;&gt;[root] provider.aws (close)</title>
<path fill="none" stroke="black" d="M1042.5,-507.503C1020.17,-497.287 989.118,-483.08 963.737,-471.468"/>
<polygon fill="black" stroke="black" points="964.867,-468.136 954.317,-467.158 961.955,-474.501 964.867,-468.136"/>
</g>
</g>
</svg>
