<?xml version="1.0" encoding="UTF-8" standalone="no"?>
<!DOCTYPE svg PUBLIC "-//W3C//DTD SVG 1.1//EN"
 "http://www.w3.org/Graphics/SVG/1.1/DTD/svg11.dtd">
<!-- Generated by graphviz version 2.38.0 (20140413.2041)
 -->
<!-- Title: %3 Pages: 1 -->
<svg width="604pt" height="404pt"
 viewBox="0.00 0.00 604.22 404.00" xmlns="http://www.w3.org/2000/svg" xmlns:xlink="http://www.w3.org/1999/xlink">
<g id="graph0" class="graph" transform="scale(1 1) rotate(0) translate(4 400)">
<title>%3</title>
<polygon fill="white" stroke="none" points="-4,4 -4,-400 600.224,-400 600.224,4 -4,4"/>
<!-- [root] aws_instance.web -->
<g id="node1" class="node"><title>[root] aws_instance.web</title>
<polygon fill="none" stroke="black" points="264.54,-252 146.54,-252 146.54,-216 264.54,-216 264.54,-252"/>
<text text-anchor="middle" x="205.54" y="-230.3" font-family="Times New Roman,serif" font-size="14.00">aws_instance.web</text>
</g>
<!-- [root] data.aws_ami.ubuntu -->
<g id="node2" class="node"><title>[root] data.aws_ami.ubuntu</title>
<polygon fill="none" stroke="black" points="272.54,-180 138.54,-180 138.54,-144 272.54,-144 272.54,-180"/>
<text text-anchor="middle" x="205.54" y="-158.3" font-family="Times New Roman,serif" font-size="14.00">data.aws_ami.ubuntu</text>
</g>
<!-- [root] aws_instance.web&#45;&gt;[root] data.aws_ami.ubuntu -->
<g id="edge1" class="edge"><title>[root] aws_instance.web&#45;&gt;[root] data.aws_ami.ubuntu</title>
<path fill="none" stroke="black" d="M205.54,-215.697C205.54,-207.983 205.54,-198.712 205.54,-190.112"/>
<polygon fill="black" stroke="black" points="209.04,-190.104 205.54,-180.104 202.04,-190.104 209.04,-190.104"/>
</g>
<!-- [root] provider.aws -->
<g id="node3" class="node"><title>[root] provider.aws</title>
<polygon fill="none" stroke="black" points="205.54,-108 123.93,-90 205.54,-72 287.151,-90 205.54,-108"/>
<text text-anchor="middle" x="205.54" y="-86.3" font-family="Times New Roman,serif" font-size="14.00">provider.aws</text>
</g>
<!-- [root] data.aws_ami.ubuntu&#45;&gt;[root] provider.aws -->
<g id="edge2" class="edge"><title>[root] data.aws_ami.ubuntu&#45;&gt;[root] provider.aws</title>
<path fill="none" stroke="black" d="M205.54,-143.697C205.54,-135.983 205.54,-126.712 205.54,-118.112"/>
<polygon fill="black" stroke="black" points="209.04,-118.104 205.54,-108.104 202.04,-118.104 209.04,-118.104"/>
</g>
<!-- [root] var.AWS_PROFILE -->
<g id="node5" class="node"><title>[root] var.AWS_PROFILE</title>
<polygon fill="none" stroke="black" points="191.54,-36 63.5404,-36 63.5404,-0 197.54,-0 197.54,-30 191.54,-36"/>
<polyline fill="none" stroke="black" points="191.54,-36 191.54,-30 "/>
<polyline fill="none" stroke="black" points="197.54,-30 191.54,-30 "/>
<text text-anchor="middle" x="130.54" y="-14.3" font-family="Times New Roman,serif" font-size="14.00">var.AWS_PROFILE</text>
</g>
<!-- [root] provider.aws&#45;&gt;[root] var.AWS_PROFILE -->
<g id="edge6" class="edge"><title>[root] provider.aws&#45;&gt;[root] var.AWS_PROFILE</title>
<path fill="none" stroke="black" d="M190.723,-75.1703C180.941,-66.041 167.862,-53.8337 156.396,-43.1315"/>
<polygon fill="black" stroke="black" points="158.474,-40.2836 148.775,-36.019 153.698,-45.401 158.474,-40.2836"/>
</g>
<!-- [root] var.AWS_REGION -->
<g id="node6" class="node"><title>[root] var.AWS_REGION</title>
<polygon fill="none" stroke="black" points="339.54,-36 215.54,-36 215.54,-0 345.54,-0 345.54,-30 339.54,-36"/>
<polyline fill="none" stroke="black" points="339.54,-36 339.54,-30 "/>
<polyline fill="none" stroke="black" points="345.54,-30 339.54,-30 "/>
<text text-anchor="middle" x="280.54" y="-14.3" font-family="Times New Roman,serif" font-size="14.00">var.AWS_REGION</text>
</g>
<!-- [root] provider.aws&#45;&gt;[root] var.AWS_REGION -->
<g id="edge7" class="edge"><title>[root] provider.aws&#45;&gt;[root] var.AWS_REGION</title>
<path fill="none" stroke="black" d="M220.358,-75.1703C230.139,-66.041 243.219,-53.8337 254.685,-43.1315"/>
<polygon fill="black" stroke="black" points="257.383,-45.401 262.306,-36.019 252.607,-40.2836 257.383,-45.401"/>
</g>
<!-- [root] var.AMIS -->
<g id="node4" class="node"><title>[root] var.AMIS</title>
<polygon fill="none" stroke="black" points="445.54,-252 379.54,-252 379.54,-216 451.54,-216 451.54,-246 445.54,-252"/>
<polyline fill="none" stroke="black" points="445.54,-252 445.54,-246 "/>
<polyline fill="none" stroke="black" points="451.54,-246 445.54,-246 "/>
<text text-anchor="middle" x="415.54" y="-230.3" font-family="Times New Roman,serif" font-size="14.00">var.AMIS</text>
</g>
<!-- [root] meta.count&#45;boundary (EachMode fixup) -->
<g id="node7" class="node"><title>[root] meta.count&#45;boundary (EachMode fixup)</title>
<ellipse fill="none" stroke="black" cx="415.54" cy="-306" rx="180.868" ry="18"/>
<text text-anchor="middle" x="415.54" y="-302.3" font-family="Times New Roman,serif" font-size="14.00">[root] meta.count&#45;boundary (EachMode fixup)</text>
</g>
<!-- [root] meta.count&#45;boundary (EachMode fixup)&#45;&gt;[root] aws_instance.web -->
<g id="edge3" class="edge"><title>[root] meta.count&#45;boundary (EachMode fixup)&#45;&gt;[root] aws_instance.web</title>
<path fill="none" stroke="black" d="M366.305,-288.588C336.422,-278.627 298.049,-265.836 266.288,-255.249"/>
<polygon fill="black" stroke="black" points="267.254,-251.882 256.66,-252.04 265.04,-258.523 267.254,-251.882"/>
</g>
<!-- [root] meta.count&#45;boundary (EachMode fixup)&#45;&gt;[root] var.AMIS -->
<g id="edge4" class="edge"><title>[root] meta.count&#45;boundary (EachMode fixup)&#45;&gt;[root] var.AMIS</title>
<path fill="none" stroke="black" d="M415.54,-287.697C415.54,-279.983 415.54,-270.712 415.54,-262.112"/>
<polygon fill="black" stroke="black" points="419.04,-262.104 415.54,-252.104 412.04,-262.104 419.04,-262.104"/>
</g>
<!-- [root] provider.aws (close) -->
<g id="node8" class="node"><title>[root] provider.aws (close)</title>
<ellipse fill="none" stroke="black" cx="108.54" cy="-306" rx="108.581" ry="18"/>
<text text-anchor="middle" x="108.54" y="-302.3" font-family="Times New Roman,serif" font-size="14.00">[root] provider.aws (close)</text>
</g>
<!-- [root] provider.aws (close)&#45;&gt;[root] aws_instance.web -->
<g id="edge5" class="edge"><title>[root] provider.aws (close)&#45;&gt;[root] aws_instance.web</title>
<path fill="none" stroke="black" d="M132.021,-288.055C144.558,-279.008 160.166,-267.744 173.772,-257.926"/>
<polygon fill="black" stroke="black" points="175.879,-260.722 181.939,-252.032 171.782,-255.045 175.879,-260.722"/>
</g>
<!-- [root] root -->
<g id="node9" class="node"><title>[root] root</title>
<ellipse fill="none" stroke="black" cx="261.54" cy="-378" rx="49.2915" ry="18"/>
<text text-anchor="middle" x="261.54" y="-374.3" font-family="Times New Roman,serif" font-size="14.00">[root] root</text>
</g>
<!-- [root] root&#45;&gt;[root] meta.count&#45;boundary (EachMode fixup) -->
<g id="edge8" class="edge"><title>[root] root&#45;&gt;[root] meta.count&#45;boundary (EachMode fixup)</title>
<path fill="none" stroke="black" d="M291.233,-363.503C313.399,-353.428 344.104,-339.471 369.451,-327.95"/>
<polygon fill="black" stroke="black" points="371.218,-330.991 378.874,-323.667 368.322,-324.619 371.218,-330.991"/>
</g>
<!-- [root] root&#45;&gt;[root] provider.aws (close) -->
<g id="edge9" class="edge"><title>[root] root&#45;&gt;[root] provider.aws (close)</title>
<path fill="none" stroke="black" d="M232.04,-363.503C209.711,-353.287 178.658,-339.08 153.277,-327.468"/>
<polygon fill="black" stroke="black" points="154.407,-324.136 143.858,-323.158 151.495,-330.501 154.407,-324.136"/>
</g>
</g>
</svg>
